PathFileType	4	(X/Y/Z)	C:\Git\research_data\Projects\torsion_deformities_healthy_kinematics\simulations\P01\pre\dynamic07_l\marker_experimental.trc
DataRate	CameraRate	NumFrames	NumMarkers	Units	OrigDataRate	OrigDataStartFrame	OrigNumFrames
200	200	10	34	mm	200	201	802
Frame#	Time	C7			T10			CLAV			STRN			RBAK			LASI			RASI			SACR			LT1			LT2			LT3			LS1			LS2			LS3			LHEE			LTOE			RT1			RT2			RT3			RS1			RS2			RS3			RHEE			RTOE			LKNE			LANK			RKNE			RANK			LAJC			LKJC			RAJC			RKJC			RHJC			LHJC		
		X1	Y1	Z1	X2	Y2	Z2	X3	Y3	Z3	X4	Y4	Z4	X5	Y5	Z5	X6	Y6	Z6	X7	Y7	Z7	X8	Y8	Z8	X9	Y9	Z9	X10	Y10	Z10	X11	Y11	Z11	X12	Y12	Z12	X13	Y13	Z13	X14	Y14	Z14	X15	Y15	Z15	X16	Y16	Z16	X17	Y17	Z17	X18	Y18	Z18	X19	Y19	Z19	X20	Y20	Z20	X21	Y21	Z21	X22	Y22	Z22	X23	Y23	Z23	X24	Y24	Z24	X25	Y25	Z25	X26	Y26	Z26	X27	Y27	Z27	X28	Y28	Z28	X29	Y29	Z29	X30	Y30	Z30	X31	Y31	Z31	X32	Y32	Z32	X33	Y33	Z33	X34	Y34	Z34	

201	1.000000	-1417.174316	1023.712830	404.869293	-1435.990601	849.055237	392.473145	-1301.887695	994.018494	407.572723	-1244.631226	866.383789	397.650787	-1436.979126	958.453247	490.043549	-1318.851562	690.256714	283.930389	-1292.765259	695.297668	495.921112	-1451.784058	735.289917	399.666687	-1315.160278	509.682495	245.943359	-1355.058960	420.386169	243.557953	-1213.050293	434.748352	264.304138	-1360.030273	276.121216	256.862183	-1483.142334	277.248291	252.701920	-1377.975464	182.773026	277.469269	-1547.688354	159.617844	327.609192	-1439.800659	66.948486	331.569366	-1335.758423	524.533691	539.434448	-1397.093506	449.995789	530.601379	-1253.983154	436.587646	523.947144	-1321.042603	278.007233	525.424316	-1412.586914	209.396652	571.648926	-1285.656250	190.381119	506.864563	-1415.488037	43.686687	506.121246	-1279.682129	44.126194	457.944153	-1291.136963	355.642273	260.634644	-1514.825806	121.345367	301.625244	-1328.734253	354.928223	512.162598	-1361.871704	43.225124	523.065918	-1510.346191	119.947891	335.195129	-1279.226318	347.073212	309.984161	-1371.361206	47.979919	487.751190	-1328.768188	352.947021	458.371185	-1361.284862	635.681259	476.522953	-1380.284464	632.009749	322.122409	
202	1.005000	-1410.653687	1024.380249	404.770111	-1429.822876	849.863892	392.426819	-1295.509155	994.749939	407.077850	-1238.454224	867.017456	397.078339	-1430.256592	959.225403	490.122314	-1312.473511	691.966736	284.040405	-1286.593506	695.567932	495.377930	-1445.743652	736.419800	399.448853	-1307.262329	512.023743	244.961029	-1345.636475	422.014709	241.863251	-1203.996582	438.413666	264.044678	-1348.258667	276.069855	256.044952	-1471.368042	273.725952	251.416229	-1363.815186	182.433289	277.425476	-1533.140747	155.063873	327.750885	-1422.224854	65.923401	331.318512	-1332.532959	524.724731	539.242310	-1394.748901	450.969177	529.871948	-1251.781006	435.679657	524.494995	-1319.849854	278.083313	525.222961	-1410.950806	209.958786	572.036987	-1284.903809	190.302689	506.366669	-1415.510864	43.970261	505.940216	-1279.585083	44.071514	457.879150	-1280.853149	358.341248	259.299530	-1498.944580	117.518272	301.609222	-1327.484619	355.034088	512.063232	-1361.164185	43.384617	523.016602	-1494.565308	116.543312	335.207245	-1269.273682	349.774353	308.728119	-1370.931274	48.185940	487.783966	-1327.064941	353.037994	458.273987	-1355.145188	636.368034	475.660416	-1374.000370	633.744341	321.687977	
203	1.010000	-1404.114136	1024.974487	404.659180	-1423.660889	850.601685	392.373505	-1289.094238	995.373352	406.574280	-1232.276611	867.527771	396.517365	-1423.504028	959.934326	490.210602	-1306.078857	693.566284	284.193207	-1280.447998	695.710632	494.836609	-1439.727539	737.449585	399.200653	-1299.353882	514.253723	243.980072	-1336.288574	423.593323	240.200912	-1195.035156	441.935181	263.771881	-1336.489136	275.957428	255.174911	-1459.472046	270.057007	250.014542	-1349.562988	182.065826	277.257294	-1518.366699	150.307968	327.663757	-1404.492920	64.876060	330.826630	-1329.197266	524.873474	538.989380	-1392.220947	451.883270	529.169006	-1249.459473	434.796204	524.874817	-1318.587646	278.152985	524.980225	-1409.394165	210.533524	572.326416	-1284.121948	190.211777	505.874146	-1415.533569	44.277596	505.742096	-1279.488892	44.013927	457.826630	-1270.714600	360.941254	257.995056	-1482.845215	113.575203	301.358002	-1326.035400	355.122986	511.899078	-1360.605225	43.577621	522.944824	-1478.600342	112.996704	334.982452	-1259.459351	352.363892	307.496735	-1370.609253	48.426880	487.785339	-1325.233276	353.101105	458.115173	-1349.033717	636.949010	474.791181	-1367.713499	635.386208	321.274172	
204	1.015000	-1397.555542	1025.492676	404.536743	-1417.503906	851.264648	392.310791	-1282.641113	995.881897	406.063049	-1226.099121	867.906250	395.968109	-1416.721069	960.575439	490.309631	-1299.686035	695.024475	284.363434	-1274.338745	695.724609	494.301636	-1433.736572	738.369629	398.915222	-1291.445679	516.358276	243.005203	-1327.034302	425.108673	238.600510	-1186.175659	445.297852	263.468170	-1324.725952	275.812622	254.253525	-1447.456299	266.297791	248.529755	-1335.229736	181.701233	276.932526	-1503.355347	145.376144	327.320343	-1386.614868	63.822906	330.080048	-1325.734253	524.975525	538.676697	-1389.501465	452.733887	528.501160	-1247.005005	433.929230	525.084045	-1317.274414	278.209686	524.714111	-1407.992676	211.114136	572.474487	-1283.322144	190.100769	505.432800	-1415.556641	44.607849	505.526215	-1279.397095	43.952477	457.786591	-1260.734375	363.421967	256.740082	-1466.538330	109.562836	300.849792	-1324.384033	355.186646	511.676331	-1360.247070	43.806023	522.847595	-1462.451050	109.338417	334.497986	-1249.781982	354.830414	306.307129	-1370.419434	48.704662	487.743225	-1323.275391	353.129517	457.899231	-1342.964233	637.413698	473.924633	-1361.443484	636.903271	320.870765	
205	1.020000	-1390.977905	1025.932373	404.402710	-1411.351440	851.849609	392.236053	-1276.148926	996.269714	405.544739	-1219.922485	868.146057	395.430298	-1409.908325	961.144592	490.419830	-1293.312256	696.313110	284.525146	-1268.276001	695.609863	493.777649	-1427.771240	739.171875	398.585968	-1283.550171	518.324463	242.042068	-1317.891479	426.546844	237.087662	-1177.427979	448.489166	263.123291	-1312.976074	275.661530	253.282349	-1435.328125	262.498230	246.993759	-1320.827393	181.367508	276.423126	-1488.095215	140.293961	326.695465	-1368.599976	62.778412	329.070648	-1322.131470	525.026428	538.305969	-1386.587891	453.517517	527.873413	-1244.407715	433.070068	525.123718	-1315.924683	278.247314	524.438904	-1406.796387	211.695908	572.452637	-1282.513184	189.962433	505.075653	-1415.580566	44.960194	505.291321	-1279.313477	43.886406	457.757416	-1250.924561	365.765045	255.552902	-1450.033936	105.522873	300.068451	-1322.532471	355.217682	511.399841	-1360.120728	44.070076	522.721802	-1446.114990	105.596657	333.737305	-1240.242065	357.164276	305.177216	-1370.373291	49.019119	487.647858	-1321.194946	353.117889	457.629578	-1336.950564	637.752772	473.069397	-1355.208946	638.265634	320.466218	
206	1.025000	-1384.381470	1026.291870	404.256592	-1405.203125	852.353943	392.146362	-1269.617676	996.532288	405.019440	-1213.747437	868.241638	394.903320	-1403.066528	961.638184	490.540863	-1286.972900	697.407349	284.653107	-1262.269287	695.367676	493.269043	-1421.831299	739.849731	398.206970	-1275.681274	520.140381	241.097107	-1308.876343	427.893585	235.683319	-1168.801758	451.498993	262.734955	-1301.248413	275.526245	252.262970	-1423.099121	258.699402	245.435013	-1306.368652	181.089508	275.706421	-1472.575073	135.086761	325.767334	-1350.455688	61.756290	327.795013	-1318.381104	525.022400	537.879150	-1383.483521	454.231232	527.287354	-1241.661621	432.209930	524.998657	-1314.549072	278.260437	524.163818	-1405.827026	212.276306	572.247864	-1281.700439	189.790421	504.821442	-1415.605713	45.333931	505.035675	-1279.241699	43.815243	457.736237	-1241.294800	367.954346	254.450989	-1433.340942	101.492043	299.002991	-1320.487305	355.210266	511.074066	-1360.232056	44.367874	522.566895	-1429.588379	101.798119	332.689514	-1230.842773	359.357147	304.125000	-1370.468018	49.366848	487.495178	-1318.998413	353.062286	457.309692	-1331.005386	637.958517	472.233193	-1349.026578	639.446451	320.048659	
207	1.030000	-1377.766724	1026.569946	404.097565	-1399.058105	852.775696	392.038818	-1263.047974	996.666382	404.486938	-1207.574829	868.189270	394.386078	-1396.197021	962.053284	490.671692	-1280.680054	698.286987	284.723694	-1256.327026	695.000549	492.779968	-1415.916260	740.398560	397.773071	-1267.852783	521.795227	240.177368	-1300.002808	429.134521	234.403152	-1160.306152	454.319214	262.308472	-1289.553467	275.424164	251.197006	-1410.783447	254.931549	243.876022	-1291.866577	180.888412	274.766541	-1456.783691	129.779999	324.518280	-1332.188721	60.770458	326.253998	-1314.480835	524.960205	537.398865	-1380.196533	454.872955	526.740967	-1238.764893	431.340729	524.717102	-1313.152710	278.244659	523.893250	-1405.077637	212.854752	571.862488	-1280.885620	189.579666	504.674408	-1415.632446	45.728600	504.756927	-1279.185425	43.738884	457.719025	-1231.853394	369.975525	253.450333	-1416.466187	97.501511	297.647430	-1318.258545	355.160004	510.701996	-1360.565063	44.695923	522.383911	-1412.866211	97.967957	331.348755	-1221.589844	361.401276	303.167572	-1370.688721	49.742271	487.286438	-1316.692505	352.960541	456.941864	-1325.139831	638.025117	471.422303	-1342.909966	640.423195	319.605945	
208	1.035000	-1371.134521	1026.766235	403.924438	-1392.915771	853.113525	391.910309	-1256.441284	996.670105	403.946503	-1201.405273	867.986877	393.877136	-1389.301514	962.387634	490.810455	-1274.443115	698.937012	284.716064	-1250.456421	694.512390	492.313934	-1410.024536	740.815430	397.280029	-1260.078735	523.279663	239.290131	-1291.282593	430.255707	233.257339	-1151.949829	456.943207	261.855804	-1277.902344	275.367279	250.086090	-1398.396362	251.213196	242.331268	-1277.334229	180.781677	273.595245	-1440.710693	124.399605	322.935760	-1313.804443	59.835686	324.452423	-1310.433228	524.837769	536.868164	-1376.739380	455.441406	526.229431	-1235.718628	430.455505	524.290894	-1311.735352	278.196533	523.626831	-1404.515381	213.432007	571.312256	-1280.065796	189.326630	504.625336	-1415.660889	46.144047	504.452545	-1279.147217	43.657578	457.701141	-1222.606689	371.816895	252.564774	-1399.415527	93.577705	295.999725	-1315.858032	355.064117	510.286407	-1361.082520	45.048580	522.175598	-1395.944092	94.130684	329.713226	-1212.491089	363.289490	302.320404	-1371.008301	50.137299	487.027740	-1314.283203	352.812042	456.528717	-1319.362979	637.949106	470.641504	-1336.869615	641.178407	319.126653	
209	1.040000	-1364.485474	1026.880615	403.735779	-1386.775269	853.366699	391.757812	-1249.799805	996.542847	403.397125	-1195.239380	867.634033	393.374756	-1382.381958	962.639343	490.954620	-1268.267090	699.347778	284.612732	-1244.662476	693.908386	491.873779	-1404.154297	741.099487	396.724792	-1252.372070	524.585693	238.442596	-1282.724365	431.244232	232.250626	-1143.740356	459.365356	261.394165	-1266.305786	275.362335	248.931946	-1385.951782	247.550980	240.805984	-1262.783936	180.783081	272.192688	-1424.346802	118.972351	321.013062	-1295.307373	58.967934	322.398773	-1306.246216	524.654236	536.290466	-1373.127686	455.936066	525.745056	-1232.527954	429.548737	523.734802	-1310.292358	278.113739	523.360229	-1404.086548	214.009552	570.623718	-1279.234863	189.029388	504.654053	-1415.690796	46.580460	504.119873	-1279.128784	43.571842	457.677856	-1213.559082	373.468750	251.805481	-1382.191895	89.742584	294.061646	-1313.299194	354.921570	509.829346	-1361.731812	45.418240	521.945740	-1378.817993	90.310295	327.784790	-1203.555786	365.014954	301.596344	-1371.391235	50.542076	486.728851	-1311.776001	352.617676	456.072357	-1313.681173	637.729478	469.893867	-1330.911746	641.700051	318.600279	
210	1.045000	-1357.820801	1026.913696	403.529785	-1380.635742	853.534973	391.578247	-1243.126221	996.285522	402.837494	-1189.077393	867.132202	392.876831	-1375.440796	962.807495	491.101013	-1262.153687	699.515625	284.400177	-1238.948242	693.195068	491.461517	-1398.302490	741.251587	396.105408	-1244.744385	525.707031	237.641418	-1274.334839	432.088715	231.382584	-1135.684204	461.580597	260.944061	-1254.773804	275.410950	247.736481	-1373.460571	243.940704	239.295746	-1248.227539	180.903214	270.567566	-1407.685181	113.526131	318.750061	-1276.701660	58.184505	320.105316	-1301.932495	524.409973	535.669861	-1369.380005	456.357422	525.278198	-1229.200684	428.616699	523.066528	-1308.815308	277.995056	523.086365	-1403.723267	214.588959	569.830688	-1278.384033	188.687454	504.732361	-1415.721802	47.038406	503.756470	-1279.130249	43.482315	457.644653	-1204.714111	374.923676	251.180344	-1364.796509	86.014587	291.838623	-1310.595459	354.732605	509.332581	-1362.450439	45.795658	521.697815	-1361.485596	86.530708	325.568848	-1194.794678	366.570831	301.005035	-1371.796875	50.946045	486.400391	-1309.174072	352.379547	455.574951	-1308.097834	637.367755	469.180750	-1325.038728	641.982012	318.017769	
